<svg width="20" height="20" viewBox="0 0 20 20" fill="none" xmlns="http://www.w3.org/2000/svg">
<clipPath id="c"><circle cx="10" cy="10" r="10"/></clipPath>
<g clip-path="url(#c)">
<rect width="20" height="20" fill="#B22234"/>
<rect y="1.54" width="20" height="1.54" fill="#FFFFFF"/>
<rect y="4.62" width="20" height="1.54" fill="#FFFFFF"/>
<rect y="7.69" width="20" height="1.54" fill="#FFFFFF"/>
<rect y="10.77" width="20" height="1.54" fill="#FFFFFF"/>
<rect y="13.85" width="20" height="1.54" fill="#FFFFFF"/>
<rect y="16.92" width="20" height="1.54" fill="#FFFFFF"/>
<rect width="9" height="10.77" fill="#3C3B6E"/>
<circle cx="1.5" cy="1" r="0.45" fill="#FFFFFF"/>
<circle cx="3" cy="1" r="0.45" fill="#FFFFFF"/>
<circle cx="4.5" cy="1" r="0.45" fill="#FFFFFF"/>
<circle cx="6" cy="1" r="0.45" fill="#FFFFFF"/>
<circle cx="7.5" cy="1" r="0.45" fill="#FFFFFF"/>
<circle cx="2.25" cy="2.2" r="0.45" fill="#FFFFFF"/>
<circle cx="3.75" cy="2.2" r="0.45" fill="#FFFFFF"/>
<circle cx="5.25" cy="2.2" r="0.45" fill="#FFFFFF"/>
<circle cx="6.75" cy="2.2" r="0.45" fill="#FFFFFF"/>
<circle cx="1.5" cy="3.4" r="0.45" fill="#FFFFFF"/>
<circle cx="3" cy="3.4" r="0.45" fill="#FFFFFF"/>
<circle cx="4.5" cy="3.4" r="0.45" fill="#FFFFFF"/>
<circle cx="6" cy="3.4" r="0.45" fill="#FFFFFF"/>
<circle cx="7.5" cy="3.4" r="0.45" fill="#FFFFFF"/>
<circle cx="2.25" cy="4.6" r="0.45" fill="#FFFFFF"/>
<circle cx="3.75" cy="4.6" r="0.45" fill="#FFFFFF"/>
<circle cx="5.25" cy="4.6" r="0.45" fill="#FFFFFF"/>
<circle cx="6.75" cy="4.6" r="0.45" fill="#FFFFFF"/>
<circle cx="1.5" cy="5.8" r="0.45" fill="#FFFFFF"/>
<circle cx="3" cy="5.8" r="0.45" fill="#FFFFFF"/>
<circle cx="4.5" cy="5.8" r="0.45" fill="#FFFFFF"/>
<circle cx="6" cy="5.8" r="0.45" fill="#FFFFFF"/>
<circle cx="7.5" cy="5.8" r="0.45" fill="#FFFFFF"/>
<circle cx="2.25" cy="7" r="0.45" fill="#FFFFFF"/>
<circle cx="3.75" cy="7" r="0.45" fill="#FFFFFF"/>
<circle cx="5.25" cy="7" r="0.45" fill="#FFFFFF"/>
<circle cx="6.75" cy="7" r="0.45" fill="#FFFFFF"/>
<circle cx="1.5" cy="8.2" r="0.45" fill="#FFFFFF"/>
<circle cx="3" cy="8.2" r="0.45" fill="#FFFFFF"/>
<circle cx="4.5" cy="8.2" r="0.45" fill="#FFFFFF"/>
<circle cx="6" cy="8.2" r="0.45" fill="#FFFFFF"/>
<circle cx="7.5" cy="8.2" r="0.45" fill="#FFFFFF"/>
<circle cx="2.25" cy="9.4" r="0.45" fill="#FFFFFF"/>
<circle cx="3.75" cy="9.4" r="0.45" fill="#FFFFFF"/>
<circle cx="5.25" cy="9.4" r="0.45" fill="#FFFFFF"/>
<circle cx="6.75" cy="9.4" r="0.45" fill="#FFFFFF"/>
</g>
</svg>
